<svg width="156" height="124" viewBox="0 0 156 124" fill="none" xmlns="http://www.w3.org/2000/svg">
<path d="M44.85 21.3125C44.85 28.7961 38.7319 34.875 31.2 34.875C23.6608 34.875 17.55 28.7961 17.55 21.3125C17.55 13.8216 23.6608 7.75 31.2 7.75C38.7319 7.75 44.85 13.8216 44.85 21.3125ZM50.7975 47.5414C43.5581 53.9352 39 63.2594 39 73.625C39 81.932 41.7056 89.5609 46.8 95.543V100.75C46.8 105.037 43.3144 108.5 39 108.5H23.4C19.0929 108.5 15.6 105.037 15.6 100.75V94.2594C6.3765 89.9 0 80.5758 0 69.75C0 54.7586 12.2216 42.625 27.3 42.625H35.1C40.7306 42.625 46.3612 44.4414 50.7975 47.5414ZM15.6 59.5055C13.1723 62.218 11.7 65.8266 11.7 69.75C11.7 73.6734 13.1723 77.282 15.6 79.9945V59.5055ZM109.2 100.75V95.543C114.075 89.5609 117 81.932 117 73.625C117 63.2594 112.442 53.9352 105.203 47.5414C109.639 44.4414 115.05 42.625 120.9 42.625H128.7C143.788 42.625 156 54.7586 156 69.75C156 80.5758 149.614 89.9 140.4 94.2594V100.75C140.4 105.037 136.914 108.5 132.6 108.5H117C112.686 108.5 109.2 105.037 109.2 100.75ZM140.4 79.9945C142.618 77.282 144.3 73.6734 144.3 69.75C144.3 65.8266 142.618 62.218 140.4 59.5055V79.9945ZM138.45 21.3125C138.45 28.7961 132.332 34.875 124.8 34.875C117.268 34.875 111.15 28.7961 111.15 21.3125C111.15 13.8216 117.268 7.75 124.8 7.75C132.332 7.75 138.45 13.8216 138.45 21.3125ZM62.4 23.25C62.4 14.6887 69.3956 7.75 78 7.75C86.6044 7.75 93.6 14.6887 93.6 23.25C93.6 31.7992 86.6044 38.75 78 38.75C69.3956 38.75 62.4 31.7992 62.4 23.25ZM109.2 73.625C109.2 84.4508 102.814 93.775 93.6 98.1344V108.5C93.6 112.787 90.1144 116.25 85.8 116.25H70.2C65.8856 116.25 62.4 112.787 62.4 108.5V98.1344C53.1863 93.775 46.8 84.4508 46.8 73.625C46.8 58.6336 59.0119 46.5 74.1 46.5H81.9C96.9881 46.5 109.2 58.6336 109.2 73.625ZM62.4 83.8695V63.3805C59.9625 66.093 58.5 69.7016 58.5 73.625C58.5 77.5484 59.9625 81.157 62.4 83.8695ZM93.6 63.3805V83.8695C95.8181 81.1328 97.5 77.5484 97.5 73.625C97.5 69.7016 95.8181 66.093 93.6 63.3805Z" fill="#344090"/>
</svg>
