<svg width="90" height="80" viewBox="0 0 90 80" fill="none" xmlns="http://www.w3.org/2000/svg">
<rect x="1" y="1" width="88" height="78" rx="1" stroke="#344090" stroke-width="2"/>
<path d="M47.5833 14.2958V19.5141C57.7875 20.78 65.6667 29.46 65.6667 40C65.6667 48.2925 60.7067 55.5 53.4733 58.8066L47.5833 52.9166V65.8333H60.5L57.3483 62.6816C65.4342 58.2641 70.8333 49.7133 70.8333 40C70.8333 26.6183 60.6292 15.5875 47.5833 14.2958ZM42.4167 14.1666C37.3792 14.6833 32.6 16.6466 28.6733 19.8758L32.3417 23.5441C35.274 21.2837 38.7479 19.8318 42.4167 19.3333V14.1666ZM24.85 23.6733C21.6467 27.6 19.6833 32.3791 19.1667 37.4166H24.3333C24.8242 33.7483 26.2708 30.2608 28.5442 27.3416L24.85 23.6733ZM29.5 29.6666V34.8333H37.25V37.4166H34.6667C31.825 37.4166 29.5 39.7416 29.5 42.5833V50.3333H42.4167V45.1666H34.6667V42.5833H37.25C40.1175 42.5833 42.4167 40.2841 42.4167 37.4166V34.8333C42.4167 33.463 41.8723 32.1488 40.9034 31.1799C39.9344 30.211 38.6203 29.6666 37.25 29.6666H29.5ZM45 29.6666V42.5833H52.75V50.3333H57.9167V42.5833H60.5V37.4166H57.9167V29.6666H52.75V37.4166H50.1667V29.6666H45ZM19.1667 42.5833C19.6833 47.6208 21.6725 52.4 24.9017 56.3266L28.57 52.6583C26.3018 49.7278 24.8411 46.2541 24.3333 42.5833H19.1667ZM32.3675 56.4558L28.6733 60.1241C32.5984 63.3288 37.3762 65.3136 42.4167 65.8333V60.6666C38.7527 60.1795 35.2843 58.7262 32.3675 56.4558Z" fill="#344090"/>
</svg>
