<svg width="90" height="80" viewBox="0 0 90 80" fill="none" xmlns="http://www.w3.org/2000/svg">
<rect x="1" y="1" width="88" height="78" rx="1" stroke="#344090" stroke-width="2"/>
<path d="M35.9091 52.0714V53.9286C35.9091 54.1801 35.8191 54.3977 35.6392 54.5815C35.4593 54.7653 35.2462 54.8571 35 54.8571H33.1818C32.9356 54.8571 32.7225 54.7653 32.5426 54.5815C32.3627 54.3977 32.2727 54.1801 32.2727 53.9286V52.0714C32.2727 51.8199 32.3627 51.6023 32.5426 51.4185C32.7225 51.2347 32.9356 51.1429 33.1818 51.1429H35C35.2462 51.1429 35.4593 51.2347 35.6392 51.4185C35.8191 51.6023 35.9091 51.8199 35.9091 52.0714ZM35.9091 44.6429V46.5C35.9091 46.7515 35.8191 46.9691 35.6392 47.1529C35.4593 47.3367 35.2462 47.4286 35 47.4286H33.1818C32.9356 47.4286 32.7225 47.3367 32.5426 47.1529C32.3627 46.9691 32.2727 46.7515 32.2727 46.5V44.6429C32.2727 44.3914 32.3627 44.1737 32.5426 43.99C32.7225 43.8062 32.9356 43.7143 33.1818 43.7143H35C35.2462 43.7143 35.4593 43.8062 35.6392 43.99C35.8191 44.1737 35.9091 44.3914 35.9091 44.6429ZM43.1818 44.6429V46.5C43.1818 46.7515 43.0919 46.9691 42.9119 47.1529C42.732 47.3367 42.5189 47.4286 42.2727 47.4286H40.4545C40.2083 47.4286 39.9953 47.3367 39.8153 47.1529C39.6354 46.9691 39.5455 46.7515 39.5455 46.5V44.6429C39.5455 44.3914 39.6354 44.1737 39.8153 43.99C39.9953 43.8062 40.2083 43.7143 40.4545 43.7143H42.2727C42.5189 43.7143 42.732 43.8062 42.9119 43.99C43.0919 44.1737 43.1818 44.3914 43.1818 44.6429ZM35.9091 37.2143V39.0714C35.9091 39.3229 35.8191 39.5406 35.6392 39.7243C35.4593 39.9081 35.2462 40 35 40H33.1818C32.9356 40 32.7225 39.9081 32.5426 39.7243C32.3627 39.5406 32.2727 39.3229 32.2727 39.0714V37.2143C32.2727 36.9628 32.3627 36.7452 32.5426 36.5614C32.7225 36.3776 32.9356 36.2857 33.1818 36.2857H35C35.2462 36.2857 35.4593 36.3776 35.6392 36.5614C35.8191 36.7452 35.9091 36.9628 35.9091 37.2143ZM57.7273 52.0714V53.9286C57.7273 54.1801 57.6373 54.3977 57.4574 54.5815C57.2775 54.7653 57.0644 54.8571 56.8182 54.8571H55C54.7538 54.8571 54.5407 54.7653 54.3608 54.5815C54.1809 54.3977 54.0909 54.1801 54.0909 53.9286V52.0714C54.0909 51.8199 54.1809 51.6023 54.3608 51.4185C54.5407 51.2347 54.7538 51.1429 55 51.1429H56.8182C57.0644 51.1429 57.2775 51.2347 57.4574 51.4185C57.6373 51.6023 57.7273 51.8199 57.7273 52.0714ZM50.4545 44.6429V46.5C50.4545 46.7515 50.3646 46.9691 50.1847 47.1529C50.0047 47.3367 49.7917 47.4286 49.5455 47.4286H47.7273C47.4811 47.4286 47.268 47.3367 47.0881 47.1529C46.9081 46.9691 46.8182 46.7515 46.8182 46.5V44.6429C46.8182 44.3914 46.9081 44.1737 47.0881 43.99C47.268 43.8062 47.4811 43.7143 47.7273 43.7143H49.5455C49.7917 43.7143 50.0047 43.8062 50.1847 43.99C50.3646 44.1737 50.4545 44.3914 50.4545 44.6429ZM43.1818 37.2143V39.0714C43.1818 39.3229 43.0919 39.5406 42.9119 39.7243C42.732 39.9081 42.5189 40 42.2727 40H40.4545C40.2083 40 39.9953 39.9081 39.8153 39.7243C39.6354 39.5406 39.5455 39.3229 39.5455 39.0714V37.2143C39.5455 36.9628 39.6354 36.7452 39.8153 36.5614C39.9953 36.3776 40.2083 36.2857 40.4545 36.2857H42.2727C42.5189 36.2857 42.732 36.3776 42.9119 36.5614C43.0919 36.7452 43.1818 36.9628 43.1818 37.2143ZM57.7273 44.6429V46.5C57.7273 46.7515 57.6373 46.9691 57.4574 47.1529C57.2775 47.3367 57.0644 47.4286 56.8182 47.4286H55C54.7538 47.4286 54.5407 47.3367 54.3608 47.1529C54.1809 46.9691 54.0909 46.7515 54.0909 46.5V44.6429C54.0909 44.3914 54.1809 44.1737 54.3608 43.99C54.5407 43.8062 54.7538 43.7143 55 43.7143H56.8182C57.0644 43.7143 57.2775 43.8062 57.4574 43.99C57.6373 44.1737 57.7273 44.3914 57.7273 44.6429ZM50.4545 37.2143V39.0714C50.4545 39.3229 50.3646 39.5406 50.1847 39.7243C50.0047 39.9081 49.7917 40 49.5455 40H47.7273C47.4811 40 47.268 39.9081 47.0881 39.7243C46.9081 39.5406 46.8182 39.3229 46.8182 39.0714V37.2143C46.8182 36.9628 46.9081 36.7452 47.0881 36.5614C47.268 36.3776 47.4811 36.2857 47.7273 36.2857H49.5455C49.7917 36.2857 50.0047 36.3776 50.1847 36.5614C50.3646 36.7452 50.4545 36.9628 50.4545 37.2143ZM57.7273 37.2143V39.0714C57.7273 39.3229 57.6373 39.5406 57.4574 39.7243C57.2775 39.9081 57.0644 40 56.8182 40H55C54.7538 40 54.5407 39.9081 54.3608 39.7243C54.1809 39.5406 54.0909 39.3229 54.0909 39.0714V37.2143C54.0909 36.9628 54.1809 36.7452 54.3608 36.5614C54.5407 36.3776 54.7538 36.2857 55 36.2857H56.8182C57.0644 36.2857 57.2775 36.3776 57.4574 36.5614C57.6373 36.7452 57.7273 36.9628 57.7273 37.2143ZM50.4545 62.2857H61.3636V28.8571H54.0909V29.7857C54.0909 30.5595 53.8258 31.2173 53.2955 31.7589C52.7652 32.3006 52.1212 32.5714 51.3636 32.5714H38.6364C37.8788 32.5714 37.2348 32.3006 36.7045 31.7589C36.1742 31.2173 35.9091 30.5595 35.9091 29.7857V28.8571H28.6364V62.2857H39.5455V55.7857C39.5455 55.5342 39.6354 55.3166 39.8153 55.1328C39.9953 54.949 40.2083 54.8571 40.4545 54.8571H49.5455C49.7917 54.8571 50.0047 54.949 50.1847 55.1328C50.3646 55.3166 50.4545 55.5342 50.4545 55.7857V62.2857ZM50.4545 27.9286V18.6429C50.4545 18.3914 50.3646 18.1737 50.1847 17.99C50.0047 17.8062 49.7917 17.7143 49.5455 17.7143H47.7273C47.4811 17.7143 47.268 17.8062 47.0881 17.99C46.9081 18.1737 46.8182 18.3914 46.8182 18.6429V21.4286H43.1818V18.6429C43.1818 18.3914 43.0919 18.1737 42.9119 17.99C42.732 17.8062 42.5189 17.7143 42.2727 17.7143H40.4545C40.2083 17.7143 39.9953 17.8062 39.8153 17.99C39.6354 18.1737 39.5455 18.3914 39.5455 18.6429V27.9286C39.5455 28.1801 39.6354 28.3977 39.8153 28.5815C39.9953 28.7653 40.2083 28.8571 40.4545 28.8571H42.2727C42.5189 28.8571 42.732 28.7653 42.9119 28.5815C43.0919 28.3977 43.1818 28.1801 43.1818 27.9286V25.1429H46.8182V27.9286C46.8182 28.1801 46.9081 28.3977 47.0881 28.5815C47.268 28.7653 47.4811 28.8571 47.7273 28.8571H49.5455C49.7917 28.8571 50.0047 28.7653 50.1847 28.5815C50.3646 28.3977 50.4545 28.1801 50.4545 27.9286ZM65 27V64.1429C65 64.6458 64.8201 65.0811 64.4602 65.4487C64.1004 65.8162 63.6742 66 63.1818 66H26.8182C26.3258 66 25.8996 65.8162 25.5398 65.4487C25.1799 65.0811 25 64.6458 25 64.1429V27C25 26.497 25.1799 26.0618 25.5398 25.6942C25.8996 25.3266 26.3258 25.1429 26.8182 25.1429H35.9091V16.7857C35.9091 16.0119 36.1742 15.3542 36.7045 14.8125C37.2348 14.2708 37.8788 14 38.6364 14H51.3636C52.1212 14 52.7652 14.2708 53.2955 14.8125C53.8258 15.3542 54.0909 16.0119 54.0909 16.7857V25.1429H63.1818C63.6742 25.1429 64.1004 25.3266 64.4602 25.6942C64.8201 26.0618 65 26.497 65 27Z" fill="#344090"/>
</svg>
