<svg width="90" height="80" viewBox="0 0 90 80" fill="none" xmlns="http://www.w3.org/2000/svg">
<rect x="1" y="1" width="88" height="78" rx="1" stroke="#344090" stroke-width="2"/>
<path d="M66.125 54.625H62.875V51.375H64.5V44.875H58V46.5H54.75V43.25C54.75 42.819 54.9212 42.4057 55.226 42.101C55.5307 41.7962 55.944 41.625 56.375 41.625H66.125C66.556 41.625 66.9693 41.7962 67.274 42.101C67.5788 42.4057 67.75 42.819 67.75 43.25V53C67.75 53.431 67.5788 53.8443 67.274 54.149C66.9693 54.4538 66.556 54.625 66.125 54.625Z" fill="#344090"/>
<path d="M58 62.75H48.25C47.819 62.75 47.4057 62.5788 47.1009 62.274C46.7962 61.9693 46.625 61.556 46.625 61.125V51.375C46.625 50.944 46.7962 50.5307 47.1009 50.2259C47.4057 49.9212 47.819 49.75 48.25 49.75H58C58.431 49.75 58.8443 49.9212 59.149 50.2259C59.4538 50.5307 59.625 50.944 59.625 51.375V61.125C59.625 61.556 59.4538 61.9693 59.149 62.274C58.8443 62.5788 58.431 62.75 58 62.75ZM49.875 59.5H56.375V53H49.875V59.5ZM43.375 46.2692C42.2008 45.9632 41.136 45.3341 40.3014 44.4534C39.4668 43.5726 38.8959 42.4755 38.6535 41.2866C38.4111 40.0976 38.507 38.8646 38.9302 37.7274C39.3533 36.5902 40.0869 35.5944 41.0475 34.8532C42.0082 34.112 43.1574 33.6549 44.3648 33.534C45.5721 33.4131 46.7892 33.6332 47.8777 34.1692C48.9663 34.7052 49.8828 35.5357 50.5231 36.5664C51.1633 37.5971 51.5018 38.7866 51.5 40H54.75C54.7519 38.1407 54.2221 36.3196 53.2231 34.7515C52.2241 33.1833 50.7975 31.9335 49.1116 31.1495C47.4257 30.3654 45.5507 30.0797 43.7078 30.3261C41.8649 30.5725 40.1309 31.3408 38.7102 32.5402C37.2895 33.7397 36.2414 35.3204 35.6895 37.0959C35.1375 38.8714 35.1048 40.7677 35.5951 42.5612C36.0854 44.3547 37.0783 45.9706 38.4568 47.2184C39.8352 48.4662 41.5417 49.2939 43.375 49.6037V46.2692Z" fill="#344090"/>
<path d="M65.9462 36.0188L62.1925 39.3175L59.885 37.01L63.8013 33.565L59.9662 26.935L54.3763 28.82C53.0668 27.7301 51.5837 26.8677 49.9887 26.2688L48.835 20.5H41.165L40.0112 26.2688C38.4035 26.8509 36.9123 27.7148 35.6075 28.82L30.0337 26.935L26.1987 33.565L30.6187 37.4487C30.3181 39.1308 30.3181 40.8529 30.6187 42.535L26.1987 46.435L30.0337 53.065L35.6237 51.18C36.9332 52.2699 38.4163 53.1323 40.0112 53.7313L41.165 59.5H43.375V62.75H41.165C40.4135 62.7494 39.6854 62.4884 39.1047 62.0114C38.524 61.5344 38.1265 60.8708 37.98 60.1338L37.1512 56.0387C36.4155 55.6799 35.7044 55.2728 35.0225 54.82L31.0737 56.1525C30.738 56.2618 30.3869 56.3166 30.0337 56.315C29.4629 56.3189 28.9014 56.1704 28.4072 55.8847C27.913 55.599 27.504 55.1866 27.2225 54.69L23.3875 48.06C23.0082 47.4084 22.8673 46.6452 22.9888 45.9011C23.1104 45.157 23.4868 44.4783 24.0537 43.9813L27.1738 41.2513C27.1413 40.8288 27.125 40.4225 27.125 40C27.125 39.5775 27.1575 39.1712 27.19 38.765L24.0537 36.0188C23.4868 35.5217 23.1104 34.843 22.9888 34.0989C22.8673 33.3548 23.0082 32.5916 23.3875 31.94L27.2225 25.31C27.504 24.8134 27.913 24.401 28.4072 24.1153C28.9014 23.8296 29.4629 23.6811 30.0337 23.685C30.3869 23.6834 30.738 23.7382 31.0737 23.8475L35.0063 25.18C35.6937 24.7271 36.4103 24.32 37.1512 23.9613L37.98 19.8662C38.1265 19.1292 38.524 18.4657 39.1047 17.9886C39.6854 17.5116 40.4135 17.2506 41.165 17.25H48.835C49.5865 17.2506 50.3146 17.5116 50.8953 17.9886C51.476 18.4657 51.8735 19.1292 52.02 19.8662L52.8487 23.9613C53.5845 24.3201 54.2956 24.7272 54.9775 25.18L58.9263 23.8475C59.262 23.7382 59.6131 23.6834 59.9662 23.685C60.5371 23.6811 61.0986 23.8296 61.5928 24.1153C62.087 24.401 62.496 24.8134 62.7775 25.31L66.6125 31.94C66.9918 32.5916 67.1327 33.3548 67.0112 34.0989C66.8896 34.843 66.5132 35.5217 65.9462 36.0188Z" fill="#344090"/>
</svg>
