<svg width="90" height="80" viewBox="0 0 90 80" fill="none" xmlns="http://www.w3.org/2000/svg">
<rect x="1" y="1" width="88" height="78" rx="1" stroke="#344090" stroke-width="2"/>
<path d="M42.4167 55.5H47.5833V47.75H55.3333V42.5833H47.5833V34.8333H42.4167V42.5833H34.6667V47.75H42.4167V55.5ZM24.3333 65.8333C22.9125 65.8333 21.6966 65.3278 20.6857 64.3169C19.673 63.3042 19.1667 62.0875 19.1667 60.6666V29.6666C19.1667 28.2458 19.673 27.0299 20.6857 26.019C21.6966 25.0063 22.9125 24.5 24.3333 24.5H34.6667V19.3333C34.6667 17.9125 35.173 16.6957 36.1857 15.683C37.1966 14.6721 38.4125 14.1666 39.8333 14.1666H50.1667C51.5875 14.1666 52.8042 14.6721 53.8169 15.683C54.8279 16.6957 55.3333 17.9125 55.3333 19.3333V24.5H65.6667C67.0875 24.5 68.3043 25.0063 69.3169 26.019C70.3279 27.0299 70.8333 28.2458 70.8333 29.6666V60.6666C70.8333 62.0875 70.3279 63.3042 69.3169 64.3169C68.3043 65.3278 67.0875 65.8333 65.6667 65.8333H24.3333ZM39.8333 24.5H50.1667V19.3333H39.8333V24.5ZM24.3333 60.6666H65.6667V29.6666H24.3333V60.6666ZM24.3333 29.6666V60.6666V29.6666Z" fill="#344090"/>
</svg>
