<svg width="156" height="124" viewBox="0 0 156 124" fill="none" xmlns="http://www.w3.org/2000/svg">
<g clip-path="url(#clip0_115_322)">
<path d="M78 79C87.3888 79 95 71.3888 95 62C95 52.6112 87.3888 45 78 45C68.6112 45 61 52.6112 61 62C61 71.3888 68.6112 79 78 79Z" fill="#344090"/>
<path d="M141.495 60.555C136.496 47.625 127.818 36.4431 116.534 28.3914C105.249 20.3396 91.8528 15.7709 78 15.25C64.1472 15.7709 50.7506 20.3396 39.4661 28.3914C28.1816 36.4431 19.5037 47.625 14.505 60.555C14.1674 61.4888 14.1674 62.5112 14.505 63.445C19.5037 76.375 28.1816 87.5569 39.4661 95.6086C50.7506 103.66 64.1472 108.229 78 108.75C91.8528 108.229 105.249 103.66 116.534 95.6086C127.818 87.5569 136.496 76.375 141.495 63.445C141.833 62.5112 141.833 61.4888 141.495 60.555ZM78 89.625C72.5363 89.625 67.1953 88.0048 62.6524 84.9693C58.1095 81.9339 54.5687 77.6194 52.4778 72.5716C50.387 67.5238 49.8399 61.9694 50.9058 56.6106C51.9717 51.2519 54.6027 46.3296 58.4662 42.4662C62.3296 38.6027 67.2519 35.9717 72.6106 34.9058C77.9693 33.8399 83.5238 34.387 88.5716 36.4778C93.6194 38.5687 97.9339 42.1095 100.969 46.6524C104.005 51.1953 105.625 56.5363 105.625 62C105.614 69.3232 102.7 76.3432 97.5214 81.5214C92.3431 86.6997 85.3232 89.6138 78 89.625Z" fill="#344090"/>
</g>
<defs>
<clipPath id="clip0_115_322">
<rect width="156" height="124" fill="white"/>
</clipPath>
</defs>
</svg>
