<svg width="114" height="114" viewBox="0 0 114 114" fill="none" xmlns="http://www.w3.org/2000/svg">
<path d="M28.5 49.875H49.875V57H28.5V49.875ZM28.5 21.375H71.25V28.5H28.5V21.375ZM28.5 35.625H71.25V42.75H28.5V35.625ZM28.5 85.5H49.875V92.625H28.5V85.5ZM106.875 85.5V78.375H99.3902C98.9307 76.145 98.0453 74.0245 96.7824 72.1299L102.091 66.8218L97.0532 61.7844L91.7451 67.0926C89.8505 65.8297 87.73 64.9443 85.5 64.4848V57H78.375V64.4848C76.145 64.9443 74.0245 65.8297 72.1299 67.0926L66.8218 61.7844L61.7844 66.8218L67.0926 72.1299C65.8297 74.0245 64.9443 76.145 64.4848 78.375H57V85.5H64.4848C64.9443 87.73 65.8297 89.8505 67.0926 91.7451L61.7844 97.0532L66.8218 102.091L72.1299 96.7824C74.0245 98.0453 76.145 98.9307 78.375 99.3902V106.875H85.5V99.3902C87.73 98.9307 89.8505 98.0453 91.7451 96.7824L97.0532 102.091L102.091 97.0532L96.7824 91.7451C98.0453 89.8505 98.9307 87.73 99.3902 85.5H106.875ZM81.9375 92.625C79.8237 92.625 77.7574 91.9982 75.9998 90.8238C74.2423 89.6495 72.8724 87.9803 72.0635 86.0274C71.2546 84.0745 71.043 81.9256 71.4554 79.8525C71.8677 77.7793 72.8856 75.875 74.3803 74.3803C75.875 72.8856 77.7793 71.8677 79.8525 71.4554C81.9256 71.043 84.0745 71.2546 86.0274 72.0635C87.9803 72.8724 89.6495 74.2423 90.8238 75.9998C91.9982 77.7574 92.625 79.8237 92.625 81.9375C92.6222 84.7711 91.4953 87.4879 89.4916 89.4916C87.4879 91.4953 84.7711 92.6222 81.9375 92.625Z" fill="#344090"/>
<path d="M49.875 106.875H21.375C19.4859 106.873 17.6747 106.122 16.3389 104.786C15.0032 103.45 14.2519 101.639 14.25 99.75V14.25C14.2519 12.3609 15.0032 10.5497 16.3389 9.21395C17.6747 7.87816 19.4859 7.12689 21.375 7.125H78.375C80.2641 7.12689 82.0753 7.87816 83.4111 9.21395C84.7468 10.5497 85.4981 12.3609 85.5 14.25V49.875H78.375V14.25H21.375V99.75H49.875V106.875Z" fill="#344090"/>
</svg>
