<svg width="104" height="104" viewBox="0 0 104 104" fill="none" xmlns="http://www.w3.org/2000/svg">
<g clip-path="url(#clip0_10_295)">
<path d="M46.2193 100.148C45.136 98.9343 43.9053 97.5563 42.9693 97.3743C41.4567 97.4386 39.9895 97.9102 38.7227 98.7393L38.753 98.7177C37.2234 99.6172 35.5177 100.176 33.7523 100.356L33.7003 100.36H33.657C33.1112 100.361 32.5707 100.253 32.0667 100.044L32.0927 100.052C29.965 99.1683 29.1027 96.707 28.2793 94.3237C27.9492 92.8886 27.2688 91.5577 26.299 90.4497L26.3077 90.4583C25.5583 90.0944 24.7234 89.9431 23.894 90.0207H23.9113C23.2787 90.0207 22.6113 90.0597 21.944 90.0987C21.2247 90.142 20.5053 90.1767 19.8207 90.1767C18.9985 90.2542 18.1691 90.1685 17.38 89.9246C16.591 89.6807 15.858 89.2833 15.223 88.7553L15.2317 88.764C14.5499 87.792 14.0799 86.6875 13.8522 85.5222C13.6246 84.357 13.6442 83.1569 13.91 81.9997L13.9013 82.056C14.1552 80.5741 14.03 79.0521 13.5373 77.6317L13.5547 77.6967C12.4666 76.7402 11.16 76.066 9.75 75.7337L9.68933 75.7207C7.306 74.893 4.836 74.035 3.96067 71.9073C3.70956 70.7598 3.70049 69.5725 3.93402 68.4212C4.16756 67.2699 4.63857 66.18 5.317 65.221L5.29967 65.247C6.09136 63.9761 6.54897 62.5258 6.63 61.0307V61.009C6.448 60.0687 5.07 58.8423 3.85667 57.759C1.95867 56.0777 0 54.3313 0 51.9957C0 49.66 1.95867 47.9137 3.85233 46.2193C5.06567 45.136 6.44367 43.9053 6.62567 42.9693C6.53772 41.4597 6.06806 39.997 5.26067 38.7183L5.28233 38.753C4.6058 37.7867 4.13875 36.6896 3.91114 35.5322C3.68354 34.3748 3.70041 33.1825 3.96067 32.032L3.952 32.0883C4.836 29.9607 7.29733 29.0983 9.68067 28.275C11.18 27.924 12.4843 27.235 13.5547 26.2903L13.546 26.299C14.0345 24.8803 14.1509 23.3599 13.884 21.8833L13.8927 21.9353C13.6373 20.7804 13.6248 19.585 13.8561 18.425C14.0873 17.265 14.5573 16.1657 15.236 15.197L15.2187 15.223C15.857 14.697 16.5928 14.3023 17.384 14.0613C18.1752 13.8204 19.0062 13.7381 19.8293 13.819H19.8033C20.4967 13.819 21.2117 13.858 21.9267 13.897C22.594 13.936 23.2613 13.975 23.894 13.975C24.7271 14.0513 25.5651 13.8969 26.3163 13.5287L26.2903 13.5417C27.222 12.4757 27.911 11.1757 28.249 9.737L28.262 9.67633C29.094 7.293 29.952 4.823 32.0753 3.94767C32.5716 3.74422 33.1033 3.64113 33.6397 3.64433H33.6873H33.683C35.5723 3.83933 37.2883 4.42433 38.8007 5.317L38.74 5.28667C39.9911 6.10935 41.4428 6.57529 42.939 6.63433H42.9563C43.8967 6.45233 45.123 5.07433 46.2063 3.861C47.9137 1.95867 49.6643 0 52 0C54.3357 0 56.082 1.95867 57.7763 3.85667C58.8597 5.07 60.0903 6.448 61.0263 6.63C62.5386 6.56019 64.0048 6.08743 65.273 5.26067L65.2383 5.28233C66.7692 4.38299 68.4766 3.82567 70.2433 3.64867L70.2953 3.64433H70.3387C70.902 3.64433 71.4393 3.757 71.929 3.96067L71.903 3.952C74.0307 4.836 74.893 7.29733 75.7163 9.68067C76.0673 11.18 76.7563 12.48 77.6967 13.5547L77.688 13.546C78.4389 13.9094 79.2758 14.0579 80.106 13.975H80.0887C80.7213 13.975 81.3887 13.936 82.056 13.9013C82.7753 13.8623 83.4947 13.8233 84.1793 13.8233C85.0022 13.7464 85.8321 13.8323 86.6217 14.0762C87.4113 14.3201 88.1452 14.7171 88.7813 15.2447L88.7727 15.236C89.4522 16.2091 89.9205 17.3137 90.1474 18.4787C90.3743 19.6437 90.3547 20.8433 90.09 22.0003L90.0987 21.944C89.844 23.4261 89.9708 24.9487 90.467 26.3683L90.4497 26.3077C91.5113 27.2437 92.8157 27.9327 94.2543 28.2663L94.315 28.2793C96.6983 29.1113 99.1683 29.9693 100.044 32.0927C100.292 33.2401 100.3 34.4266 100.068 35.5774C99.835 36.7281 99.3665 37.8182 98.6917 38.779L98.709 38.753C97.9152 40.0142 97.4531 41.4557 97.3657 42.9433V42.9693C97.5477 43.9097 98.9257 45.136 100.139 46.2193C102.05 47.9223 104.009 49.6687 104.009 52.0043C104.009 54.34 102.05 56.0907 100.152 57.785C98.9387 58.8683 97.5607 60.0947 97.3787 61.035C97.474 62.608 97.9637 64.051 98.7437 65.2903L98.722 65.2513C99.3987 66.2168 99.8658 67.3131 100.093 68.4698C100.321 69.6266 100.304 70.8182 100.044 71.968L100.052 71.9117C99.1727 74.0437 96.707 74.9017 94.3237 75.725C92.8877 76.0551 91.5564 76.7371 90.4497 77.7097L90.4583 77.701C89.9698 79.1197 89.8534 80.6401 90.1203 82.1167L90.1117 82.0647C90.3664 83.2189 90.3786 84.4136 90.1473 85.5728C89.9161 86.732 89.4465 87.8305 88.7683 88.7987L88.7857 88.7727C88.1486 89.2996 87.4137 89.6956 86.6233 89.9381C85.8328 90.1805 85.0023 90.2645 84.1793 90.1853H84.2053C83.512 90.1853 82.797 90.1463 82.082 90.1073C81.4271 90.0626 80.771 90.0365 80.1147 90.0293C79.2815 89.9514 78.443 90.1059 77.6923 90.4757L77.7183 90.4627C76.7647 91.552 76.0923 92.8583 75.7597 94.2673L75.7467 94.328C74.9147 96.7113 74.0567 99.1813 71.9333 100.057C71.437 100.26 70.9054 100.363 70.369 100.36H70.3213H70.3257C68.5195 100.18 66.7744 99.6076 65.2123 98.683L65.2687 98.7133C64.0181 97.8902 62.5658 97.4256 61.0697 97.37H61.0523C60.112 97.552 58.8857 98.93 57.8023 100.143C56.0907 102.041 54.3443 104 52.0043 104C49.6643 104 47.9223 102.041 46.2237 100.148H46.2193ZM61.5247 31.6723L40.378 70.1003C40.3178 70.2097 40.2872 70.3329 40.289 70.4577C40.2909 70.5825 40.3252 70.7047 40.3886 70.8123C40.452 70.9198 40.5423 71.009 40.6506 71.0711C40.7589 71.1332 40.8815 71.166 41.0063 71.1663H44.6767C44.8041 71.1666 44.9293 71.1325 45.0391 71.0677C45.1489 71.0029 45.2393 70.9097 45.3007 70.798V70.7937L66.417 32.3613C66.4772 32.2519 66.5078 32.1288 66.506 32.004C66.5041 31.8791 66.4698 31.7569 66.4064 31.6494C66.343 31.5419 66.2527 31.4527 66.1444 31.3906C66.0361 31.3285 65.9135 31.2957 65.7887 31.2953H62.153C62.0245 31.2957 61.8985 31.3304 61.788 31.396C61.6775 31.4615 61.5866 31.5554 61.5247 31.668V31.6723ZM58.474 51.3847C57.9234 51.8399 57.4801 52.4112 57.176 53.0577C56.8718 53.7042 56.7143 54.4099 56.7147 55.1243V65.5287C56.7147 67.0193 57.3993 68.3497 58.4697 69.225L58.4783 69.2337C59.5877 70.161 61.0263 70.72 62.5993 70.72C64.1723 70.72 65.611 70.1567 66.729 69.225L66.7203 69.2337C67.8037 68.354 68.4883 67.0237 68.4883 65.533V55.133C68.4883 53.6423 67.8167 52.3033 66.7637 51.4107L66.755 51.4063C65.6567 50.4195 64.2318 49.8745 62.7553 49.8767H62.621H62.6297H62.4953C61.0147 49.8746 59.5845 50.414 58.474 51.3933L58.4827 51.389L58.474 51.3847ZM40.0833 32.721C39.5327 33.1762 39.0894 33.7475 38.7853 34.394C38.4812 35.0405 38.3236 35.7462 38.324 36.4607V46.8607C38.324 48.3557 39.0043 49.6947 40.079 50.5743L40.0877 50.583C41.197 51.5233 42.64 52.091 44.2173 52.091C45.7947 52.091 47.242 51.519 48.3557 50.5743L48.347 50.583C49.439 49.6947 50.128 48.3557 50.128 46.852V36.478C50.128 34.9743 49.4477 33.6353 48.373 32.7427L48.3643 32.7383C47.2071 31.7527 45.7366 31.2118 44.2165 31.2126C42.6965 31.2134 41.2265 31.7558 40.0703 32.7427L40.079 32.734L40.0833 32.721ZM61.6547 66.092C61.5615 66.0178 61.4862 65.9236 61.4345 65.8163C61.3827 65.709 61.3558 65.5914 61.3557 65.4723V55.068C61.3557 54.8167 61.4727 54.5957 61.6503 54.4527C61.8752 54.2575 62.1629 54.1498 62.4607 54.1493H62.517H62.5127H62.5647C62.8631 54.1491 63.1519 54.2551 63.3793 54.4483C63.4719 54.5221 63.5469 54.6156 63.5986 54.7221C63.6503 54.8286 63.6776 54.9453 63.6783 55.0637V65.4723C63.6784 65.5904 63.652 65.707 63.601 65.8135C63.55 65.92 63.4757 66.0137 63.3837 66.0877C63.1497 66.2783 62.8463 66.391 62.517 66.391C62.1877 66.391 61.8843 66.2783 61.646 66.0833H61.6503L61.6547 66.092ZM43.2813 47.4327C43.1886 47.3581 43.1137 47.2637 43.062 47.1565C43.0103 47.0494 42.983 46.932 42.9823 46.813V36.413C42.9823 36.1617 43.0993 35.9407 43.277 35.7933C43.511 35.6027 43.8143 35.49 44.1437 35.49C44.473 35.49 44.7763 35.6027 45.0147 35.7977H45.0103C45.1035 35.8719 45.1788 35.9661 45.2305 36.0734C45.2823 36.1807 45.3092 36.2982 45.3093 36.4173V46.8217C45.3091 46.9403 45.2826 47.0575 45.2316 47.1646C45.1807 47.2718 45.1066 47.3663 45.0147 47.4413C44.7807 47.632 44.4773 47.7447 44.148 47.7447C43.8187 47.7447 43.5153 47.632 43.277 47.437H43.2813V47.4327Z" fill="#344090"/>
</g>
<defs>
<clipPath id="clip0_10_295">
<rect width="104" height="104" fill="white"/>
</clipPath>
</defs>
</svg>
